<?xml version="1.0" encoding="UTF-8"?>
<svg width="24" height="24" viewBox="0 0 24 24" fill="none" xmlns="http://www.w3.org/2000/svg">
  <path d="M12 2.163C15.204 2.163 15.584 2.175 16.85 2.233C19.102 2.381 20.352 3.053 21.207 3.908C22.062 4.763 22.734 6.013 22.882 8.265C22.94 9.531 22.952 9.911 22.952 13.115C22.952 16.319 22.94 16.699 22.882 17.965C22.734 20.217 22.062 21.467 21.207 22.322C20.352 23.177 19.102 23.849 16.85 23.997C15.584 24.055 15.204 24.067 12 24.067C8.796 24.067 8.416 24.055 7.15 23.997C4.898 23.849 3.648 23.177 2.793 22.322C1.938 21.467 1.266 20.217 1.118 17.965C1.06 16.699 1.048 16.319 1.048 13.115C1.048 9.911 1.06 9.531 1.118 8.265C1.266 6.013 1.938 4.763 2.793 3.908C3.648 3.053 4.898 2.381 7.15 2.233C8.416 2.175 8.796 2.163 12 2.163ZM12 0C8.741 0 8.333 0.014 7.053 0.072C2.695 0.272 0.273 2.69 0.073 7.052C0.014 8.333 0 8.741 0 12C0 15.259 0.014 15.668 0.072 16.948C0.272 21.306 2.69 23.728 7.052 23.928C8.333 23.986 8.741 24 12 24C15.259 24 15.668 23.986 16.948 23.928C21.306 23.728 23.728 21.31 23.928 16.948C23.986 15.668 24 15.259 24 12C24 8.741 23.986 8.333 23.928 7.053C23.732 2.699 21.311 0.273 16.949 0.073C15.668 0.014 15.259 0 12 0ZM12 5.838C8.597 5.838 5.838 8.597 5.838 12C5.838 15.403 8.597 18.162 12 18.162C15.403 18.162 18.162 15.403 18.162 12C18.162 8.597 15.403 5.838 12 5.838ZM12 16C9.791 16 8 14.21 8 12C8 9.791 9.791 8 12 8C14.209 8 16 9.791 16 12C16 14.21 14.209 16 12 16ZM18.406 5.594C17.61 5.594 16.965 6.239 16.965 7.035C16.965 7.831 17.61 8.476 18.406 8.476C19.201 8.476 19.845 7.831 19.845 7.035C19.845 6.239 19.201 5.594 18.406 5.594Z" fill="currentColor"/>
</svg> 